<?xml version="1.0" standalone="no"?>
<!DOCTYPE svg PUBLIC "-//W3C//DTD SVG 20010904//EN"
 "http://www.w3.org/TR/2001/REC-SVG-20010904/DTD/svg10.dtd">
<svg version="1.0" xmlns="http://www.w3.org/2000/svg"
 width="512.000000pt" height="512.000000pt" viewBox="0 0 512.000000 512.000000"
 preserveAspectRatio="xMidYMid meet">

<g transform="translate(0.000000,512.000000) scale(0.100000,-0.100000)"
fill="#000000" stroke="none">
<path d="M2459 5092 c-80 -41 -113 -94 -117 -185 -4 -92 22 -148 90 -192 45
-29 47 -32 47 -77 l1 -48 -347 0 c-193 0 -377 -5 -412 -11 -154 -25 -270 -128
-310 -277 -12 -42 -12 -43 -161 -117 l-150 -75 0 -195 0 -195 40 0 41 0 -3
-72 -3 -73 -37 -3 -38 -3 0 -190 0 -189 148 -74 148 -74 18 -61 c33 -111 106
-191 221 -243 42 -18 72 -23 188 -26 l137 -4 0 -74 0 -74 -375 0 -375 0 0 -75
0 -75 -75 0 -75 0 0 75 0 75 -202 0 c-118 0 -220 -5 -243 -11 -55 -15 -129
-91 -144 -146 -8 -30 -11 -221 -9 -655 3 -599 3 -614 24 -659 31 -66 78 -114
142 -146 55 -27 63 -28 245 -31 l187 -4 0 526 0 526 74 0 74 0 5 -397 c5 -432
7 -453 68 -639 35 -109 95 -231 164 -334 64 -96 259 -291 355 -355 492 -327
1103 -310 1574 41 42 32 76 60 76 63 0 3 -22 30 -48 59 l-47 53 -80 -61 c-114
-87 -275 -164 -420 -202 -112 -29 -132 -31 -290 -31 -228 -1 -371 33 -557 130
-286 150 -515 427 -598 723 -46 165 -50 230 -50 833 l0 567 1201 0 1200 0 -4
-617 c-3 -533 -6 -627 -20 -686 -45 -183 -116 -338 -219 -474 l-59 -78 53 -47
c29 -26 56 -48 59 -48 10 0 117 148 158 219 83 142 150 342 171 511 5 46 10
239 10 427 l0 343 75 0 75 0 0 -525 0 -525 168 0 c122 0 183 4 220 15 74 22
144 82 178 152 l29 58 3 613 c2 434 -1 625 -9 655 -15 55 -89 131 -144 146
-23 6 -125 11 -242 11 l-203 0 0 -75 0 -75 -75 0 -75 0 0 75 0 75 -375 0 -375
0 0 74 0 74 138 4 c115 3 145 8 187 26 114 52 181 124 219 238 l22 65 145 72
144 72 3 462 2 463 -149 75 c-150 74 -150 75 -162 117 -39 148 -157 254 -309
278 -36 5 -221 10 -412 10 l-348 0 1 48 c0 45 2 48 47 77 68 44 94 100 90 192
-4 92 -38 145 -117 186 -73 36 -131 36 -202 -1z m145 -143 c36 -28 36 -80 0
-108 -15 -12 -34 -21 -44 -21 -34 0 -70 39 -70 75 0 36 36 75 70 75 10 0 29
-9 44 -21z m842 -536 c47 -25 91 -73 111 -120 10 -26 13 -153 13 -645 0 -571
-2 -616 -19 -653 -23 -51 -89 -111 -138 -124 -25 -7 -310 -11 -854 -11 -908 0
-870 -3 -941 67 -71 69 -69 46 -66 739 l3 620 28 42 c38 58 95 93 164 102 32
4 418 7 858 6 l800 -1 41 -22z m424 -766 l0 -363 -65 -32 c-36 -18 -68 -32
-70 -32 -3 0 -5 194 -5 430 l0 430 70 -35 70 -35 0 -363z m-860 -1007 l0 -70
-375 0 -375 0 0 70 0 70 375 0 375 0 0 -70z m-2100 -905 l0 -675 -87 0 c-112
0 -162 22 -192 84 -20 41 -21 57 -21 630 l0 587 25 24 c23 24 30 25 150 25
l125 0 0 -675z m3575 650 l25 -24 0 -592 c0 -589 0 -591 -22 -630 -32 -58 -84
-79 -191 -79 l-87 0 0 675 0 675 125 0 c120 0 127 -1 150 -25z m-3275 -195 l0
-70 -75 0 -75 0 0 70 0 70 75 0 75 0 0 -70z m2850 0 l0 -70 -75 0 -75 0 0 70
0 70 75 0 75 0 0 -70z"/>
<path d="M2337 4284 c-4 -4 -7 -38 -7 -76 l0 -68 80 0 81 0 -3 73 -3 72 -70 3
c-39 1 -74 0 -78 -4z"/>
<path d="M2637 4284 c-4 -4 -7 -38 -7 -76 l0 -68 80 0 81 0 -3 73 -3 72 -70 3
c-39 1 -74 0 -78 -4z"/>
<path d="M1955 4045 c-78 -28 -145 -124 -145 -209 0 -116 110 -226 225 -226
115 0 225 110 225 226 0 59 -22 109 -69 155 -66 67 -148 85 -236 54z m128
-163 c22 -19 22 -70 0 -94 -20 -22 -70 -23 -95 -1 -23 21 -24 75 0 95 33 29
60 29 95 0z"/>
<path d="M3005 4045 c-78 -28 -145 -124 -145 -209 0 -116 110 -226 225 -226
115 0 225 110 225 226 0 59 -22 109 -69 155 -66 67 -148 85 -236 54z m128
-163 c22 -19 22 -70 0 -94 -20 -22 -70 -23 -95 -1 -23 21 -24 75 0 95 33 29
60 29 95 0z"/>
<path d="M2185 3383 c13 -142 64 -236 165 -305 131 -90 304 -87 433 7 91 67
139 162 152 298 l7 77 -382 0 -382 0 7 -77z m575 -80 c0 -22 -44 -75 -81 -100
-37 -25 -52 -28 -119 -28 -67 0 -82 3 -119 28 -37 25 -81 78 -81 100 0 4 90 7
200 7 110 0 200 -3 200 -7z"/>
<path d="M1800 2035 l0 -155 -75 0 -75 0 0 -75 0 -75 75 0 75 0 0 -115 0 -115
-75 0 -75 0 0 -75 0 -75 75 0 75 0 0 -110 0 -110 -75 0 -75 0 0 -75 0 -75 75
0 75 0 0 -155 0 -155 760 0 760 0 0 155 0 155 75 0 75 0 0 75 0 75 -75 0 -75
0 0 110 0 110 75 0 75 0 0 75 0 75 -75 0 -75 0 0 115 0 115 75 0 75 0 0 75 0
75 -75 0 -75 0 0 155 0 155 -760 0 -760 0 0 -155z m1370 -610 l0 -605 -610 0
-610 0 0 605 0 605 610 0 610 0 0 -605z"/>
<path d="M2332 1733 c-5 -16 -58 -153 -116 -307 -59 -153 -105 -283 -104 -288
3 -9 61 -35 119 -53 13 -4 22 12 44 70 l27 75 102 0 102 0 22 -62 c34 -95 30
-92 98 -67 32 12 63 26 67 30 5 4 -44 147 -109 318 l-117 311 -62 0 c-60 0
-64 -1 -73 -27z m97 -300 l21 -53 -45 0 -45 0 20 53 c11 28 20 54 20 56 0 11
10 -9 29 -56z"/>
<path d="M2842 1428 l3 -333 73 -3 72 -3 0 336 0 335 -75 0 -75 0 2 -332z"/>
</g>
</svg>
